<svg id="Calque_1" data-name="Calque 1" xmlns="http://www.w3.org/2000/svg" viewBox="0 0 539.51 733.72"><defs><style>.cls-1{fill:none;stroke:#967469;stroke-linecap:round;stroke-linejoin:round;stroke-width:3px;}</style></defs><polyline class="cls-1" points="20.99 22.3 36.47 1.5 94.98 20.3"/><polyline class="cls-1" points="517.68 724.63 516.17 732.22 432.68 699.54 347.28 655.86 270.85 579.08"/><path class="cls-1" d="M943.32,566.44c5,36.87-10.33,58.9-5.87,76.94a74.2,74.2,0,0,1,.23,33.71l-6.48,32.42" transform="translate(-406.32 -20.95)"/><line class="cls-1" x1="524.88" y1="688.56" x2="517.68" y2="724.63"/><path class="cls-1" d="M890.91,215.47l2.69,2.86,7.5,31s37.25,280.24,42.22,317.1" transform="translate(-406.32 -20.95)"/><path class="cls-1" d="M890.91,215.47l-16.18-17.2L716,151.09a538.88,538.88,0,0,1-81-47.65c-42.32-30.15-56.71-21.89-56.71-21.89L516.75,46.21l-15.45-5" transform="translate(-406.32 -20.95)"/><path class="cls-1" d="M478.17,404.54c4.12-82.54-45.9-167.14-47.33-172.2s-30.37-70.85-21.24-101.1,14.08-83.12,14.08-83.12l3.63-4.87" transform="translate(-406.32 -20.95)"/><path class="cls-1" d="M478.17,404.54c-4.12,82.54,10.47,102.84,18.73,114.66s33.48,43,33.48,43l37.87,22.4,19.16,5.19,22.64,6.13L677.17,600" transform="translate(-406.32 -20.95)"/><polyline class="cls-1" points="517.68 724.63 472.06 688.7 270.85 579.08"/><path class="cls-1" d="M924,745.58" transform="translate(-406.32 -20.95)"/><line class="cls-1" x1="154.58" y1="445.71" x2="129.18" y2="401.44"/><line class="cls-1" x1="71.85" y1="383.59" x2="129.18" y2="401.44"/><polyline class="cls-1" points="154.58 445.71 138.35 481.51 154.57 525.17 270.85 579.08"/><line class="cls-1" x1="324.6" y1="211.3" x2="229.71" y2="141.77"/><polyline class="cls-1" points="122.61 108.02 205.26 123.84 229.71 141.77"/><path class="cls-1" d="M890.91,215.47" transform="translate(-406.32 -20.95)"/><polyline class="cls-1" points="20.99 22.3 31.63 36.65 36.73 55.79 84.23 66.78 122.61 108.02"/><line class="cls-1" x1="470.99" y1="202.32" x2="484.59" y2="194.52"/><polyline class="cls-1" points="470.99 202.32 421.46 205.74 324.6 211.3"/><path class="cls-1" d="M427.31,43.25" transform="translate(-406.32 -20.95)"/><path class="cls-1" d="M931.2,709.51" transform="translate(-406.32 -20.95)"/><polyline class="cls-1" points="470.99 202.32 513.26 457.98 537 545.5"/><polyline class="cls-1" points="524.88 688.56 491.74 605.06 473.65 606.87 437.19 489.5 425.35 422.73"/><polyline class="cls-1" points="470.99 202.32 487.69 303.91 449.23 331.04 425.35 422.73"/><polyline class="cls-1" points="182.18 309.23 297.32 263.75 324.6 211.3"/><polyline class="cls-1" points="324.6 211.3 331.66 344.08 348.72 412.27 379.01 441.97"/><line class="cls-1" x1="129.18" y1="401.44" x2="182.18" y2="309.23"/><polyline class="cls-1" points="318.81 498.58 365 480.9 379.01 441.97"/><line class="cls-1" x1="154.58" y1="445.71" x2="318.81" y2="498.58"/><line class="cls-1" x1="122.61" y1="108.01" x2="182.18" y2="309.23"/><polyline class="cls-1" points="507.44 716.56 471.31 625.87 318.81 498.58"/><line class="cls-1" x1="425.35" y1="422.73" x2="379.01" y2="441.97"/><line class="cls-1" x1="229.71" y1="141.77" x2="229.71" y2="141.77"/><path class="cls-1" d="M501.3,41.25" transform="translate(-406.32 -20.95)"/><line class="cls-1" x1="94.98" y1="20.3" x2="229.71" y2="141.77"/></svg>